<svg xmlns="http://www.w3.org/2000/svg" xmlns:xlink="http://www.w3.org/1999/xlink" width="233.284" height="34.624" viewBox="0 0 233.284 34.624">
  <defs>
    <clipPath id="clip-path">
      <rect id="사각형_118" data-name="사각형 118" width="233.284" height="34.624" fill="none"/>
    </clipPath>
  </defs>
  <g id="logo" transform="translate(0 0)">
    <g id="그룹_1" data-name="그룹 1" transform="translate(0 0)" clip-path="url(#clip-path)">
      <path id="패스_1" data-name="패스 1" d="M87.048.091a.416.416,0,0,0-.161-.083c-.253-.049-.5.131-.88.431l-.288.221c-1.035.549-1.822,3.124-2,4.183l-.109.06a4.51,4.51,0,0,0-3-2.265c.478,1.831,2.09,7.36,4.234,6.881,1.09-.241,3.365-4.83,3.387-7.355v-.1C88.217.733,87.6.252,87.048.091" transform="translate(-32.234 0)" fill="#f08300"/>
      <path id="패스_2" data-name="패스 2" d="M110.6,47.054c-2.69.112-3.582-.029-6.222.834a2.2,2.2,0,0,0-.979.695c.04.555-.292,1.431.226,1.641.025,0,.025.086.05.132.151.152.308.177.463.369.1.142.178-.013.286.043.05.05.075.137.125.149.26.122.5.074.753.2a.662.662,0,0,0,.391.1c.079-.029.182.154.206.2a3.254,3.254,0,0,0,1.437.013c1.491-.023,1.21-.169,2.7-.194,1.255-.018,2.481.173,3.734.155.682-.023,1.422,0,2.1-.047,1.2-.07,2.408.114,3.612.128.6-.014,1.3.222,1.908.268a9.324,9.324,0,0,1,1.933-.032,1.683,1.683,0,0,1,.634.083,1.682,1.682,0,0,0,.593.211,3.908,3.908,0,0,0,1.649-.384,3.8,3.8,0,0,0,.974-.352.861.861,0,0,0,.354-.557,2.287,2.287,0,0,0,.119-1.456c-.031,0-.107.035-.136-.011-.055-.088-.043-.295-.122-.3a5.637,5.637,0,0,0-.72-.176c-.319-.066-.646-.212-.962-.275a82.007,82.007,0,0,0-15.1-1.433" transform="translate(-41.318 -18.806)" fill="#009f73"/>
      <path id="패스_3" data-name="패스 3" d="M43.246,47.976c.271.061.58.053.725.233.146.142-.142.372-.124.559-.007.444.159.846.154,1.285a.291.291,0,0,1-.112.229,1.243,1.243,0,0,1-.325.3c-.376.236-.871.146-1.3.272a9.29,9.29,0,0,1-1.734.289,22.048,22.048,0,0,1-3.1-.144,3.1,3.1,0,0,0-1.173.157,4.846,4.846,0,0,1-1.448.091c-2.517-.091-4.99-.145-7.5-.122-.442.015-.921.07-1.361.086-2.016.114-4.028.077-6.048.13-.7.018-1.4.041-2.111.022-.391.007-.791.019-1.142.025-1.489.079-3.02.146-4.519.083-.57.009-1.182.01-1.755.018a46.514,46.514,0,0,1-5.041.266,8.531,8.531,0,0,1-3.526-.93A4.749,4.749,0,0,1,0,49.223a2,2,0,0,1,1.2-.641c1.125-.3,2.168-.5,3.3-.691.957-.159,1.832-.238,2.753-.32a227.156,227.156,0,0,1,30.868-.324,33.622,33.622,0,0,1,5.128.73" transform="translate(0 -18.742)" fill="#0073bd"/>
      <path id="패스_4" data-name="패스 4" d="M105.8,26.6v.139c.106.275.319.343.537.549h.7c0-.137.161,0,.161-.137a.59.59,0,0,0,.513-.273h.114a.6.6,0,0,1,.521-.349q.429-.518.862-1.033a.4.4,0,0,1,.172-.347,12.292,12.292,0,0,1,.574-1.933,2.775,2.775,0,0,0,.056-.692c.058,0,.115,0,.115-.067-.056-.277.116-.415.232-.552.113,0,.23,0,.287-.138v-.139a1.21,1.21,0,0,1,.84.483h.379c0,.139.073.139.152.208a3.964,3.964,0,0,1,1.272.068c0,.205.3.136.379.343a1.939,1.939,0,0,0,.227.624.243.243,0,0,1-.076.206c.15.208.3.553.076.76.074.273,0,.619.151.9-.151.138-.077.347-.077.485a3.7,3.7,0,0,1,.23.968c.3.344.225.757.455,1.1v.413c.15,0,0,.206.15.206a7.819,7.819,0,0,1-.15,1.316c-.079.068-.152.137-.23.206v.139c-.075,0-.151,0-.151-.07-.151.2-.377.346-.532.553-.148-.072-.226.065-.3.065-.153,0,0,.21-.153.21a.615.615,0,0,0-.379.138c-.151.069-.666-.068-.818.069l-.074-.069a.414.414,0,0,1-.3.139c0-.07,0-.139-.079-.139a.545.545,0,0,1-.6.274c-.067-.135-.04-.239-.212-.3a2.8,2.8,0,0,0-.286-1.184c.057,0,.057-.061.057-.121a2.118,2.118,0,0,1-.172-.565c-.175-.245-.232-.621-.462-.807.056-.064-.115-.125-.058-.189l-.288-.31c-.115,0-.115.063-.17.123-.059.312-.349.562-.4.876l-.057-.064c-.059.184-.231.309-.231.5-.115.06-.173.248-.287.31v.126c-.4.374-.621.974-1.1,1.238-.118.259-.422.313-.544.6a2.712,2.712,0,0,0-.691.144c-.148-.072-.374-.218-.524-.072,0-.072-.076-.072-.151-.072l-.074.072c-.151-.146-.377,0-.6-.072a9.547,9.547,0,0,0-1.5-.8c-.152,0,0-.219-.152-.219a.272.272,0,0,1-.222-.072c0-.218.073-.364-.153-.508l.075-.074c0-.073-.075-.073-.148-.073-.075-.434-.3-.8-.375-1.231-.079-.074-.079-.074-.151-.146a1.291,1.291,0,0,0-.152-.58c-.073-.29.187-.536.042-.812a.246.246,0,0,1,.071-.2,1.9,1.9,0,0,1,.074-.9c-.074,0-.074-.068-.074-.139a1.675,1.675,0,0,0,.145-.828c.069-.208.216-.413.286-.622l-.07-.068c.14-.139.07-.348.286-.486,0-.065,0-.136-.074-.136,0-.14.143-.206.215-.278a3,3,0,0,1,.52-.787l-.055-.08a1.014,1.014,0,0,1,.7-.277,1.641,1.641,0,0,1,.667.231c.083.163,0,.293.113.5h.109v.139c0,.068.053.068.1.068a1.225,1.225,0,0,1,.108.619c0,.071.055.071.11.071-.055.136.107.275.107.415-.107.138,0,.345-.055.552.162.346.108.761.268,1.105a1.72,1.72,0,0,0,.218.759" transform="translate(-40.773 -8.65)" fill="#231815"/>
      <path id="패스_5" data-name="패스 5" d="M61.364,28.684a1.526,1.526,0,0,1,.357.314.88.88,0,0,0,.327.346,2.2,2.2,0,0,1,.293.143l.093.191.233.216c.248.073.3-.071.487.188.083,0,.164,0,.164.074l.083-.074c.082.149.247.221.332.291a.945.945,0,0,1,.63.241c.079,0,.091.167.091.095.254.065.426.238.592.088.081,0,.164,0,.164.074l.082-.074c.164-.074.2.125.365.05.085,0,.085.074.085.149h.163c.167.146.871-.049,1.039.1a11.923,11.923,0,0,0,2.459-.1c.008-.144.238.009.244-.131l.076.075c.313.085.646-.276.955-.123.084-.063.084-.063.165-.129.161-.064.388.23.554.025,0,.071.078.073.155.078,0-.071,0-.071.007-.142.244-.13.541-.094.722-.288.079.006.236.023.316.031l.17-.125c.412-.1.769-.419,1.236-.528.071-.078.226-.091.294-.238.08-.008.156-.015.236-.02.071-.073.146-.154.215-.227.244.047.455-.287.69-.322-.011-.068-.024-.139.055-.151l.089.056c.145-.092.145-.092.2-.245.246.032.38-.267.512-.43l.157-.024c.063-.082.063-.082.133-.164.078-.014.078-.014.157-.025.21-.178.332-.409.63-.529-.009-.068-.022-.139.057-.152.165.047.131-.164.2-.244.066-.047.272-.2.329-.13-.01.118.2-.3.193-.187.055.073.327-.636.391-.682l-.66-1.722c-.243.346-1.108,1.472-1.569,1.575.007.362-.394.381-.669.588.016.068.035.136-.046.157-.231.05-.329.308-.484.341-.018-.068-.091-.05-.173-.031-.061.083-.211.119-.256.273-.231.055-.3.281-.434.444l-.091-.059c-.278.257-.681.231-.871.545-.448.208-.832.286-1.3.456-.079.005-.156.011-.16-.061-.069.146-.4.026-.467.173a8.331,8.331,0,0,0-1.344.091c-.007-.142-.236.013-.244-.127-.389.166-.784-.053-1.18-.053-.08-.071-.238-.071-.317-.21a.916.916,0,0,1-.87-.211c-.238,0-.4-.209-.634-.283v-.14l-.16-.14c0-.211.238-.211.4-.281.16-.211.588-.16.745-.372,0-.072.213-.209.213-.28.077-.139.134-.274.211-.274.239-.14.085-.3.4-.373,0-.07.251-.245.169-.314.317-.208.31-.331.389-.754.161-.211.391-.442.391-.72.079-.071-.019-.377.145-.45.076-.49-.129-.752-.129-1.245l-.158-.138c0-.213-.158-.354-.079-.565-.235-.211-.181-.28-.417-.487l-.137-.146H68.6c-.08-.142-.317-.21-.317-.35a5.713,5.713,0,0,1-.949-.422l-.079.071-.079-.071-.16.14c0-.213-.236,0-.314-.14-.162,0-.318-.073-.475.071-.475-.143-.989.1-1.464-.106,0,.139-.319-.069-.319.139-.158.069-.386.064-.465.134h-.237a1.239,1.239,0,0,1-.912.456c-.159,0,0,.211-.159.211h-.157a8.222,8.222,0,0,1-1.187,1.057c0,.068-.159.137-.079.282,0,.068-.08.068-.16.068a.358.358,0,0,1-.158.281c0,.068,0,.142.079.142,0,.067-.121.249-.2.249-.076.28-.076.562-.316.7,0,.56-.164.831-.2,1.448a8.146,8.146,0,0,1,.082,1.117c.247.149-.061.141.1.359.08,0,.036.131.036.205.082.145.347.251.26.4,0,.074.14.139.222.139.083.148-.122.311.046.382,0,.074.264.017.178.164ZM66.53,24.1c-.164.074,0,.223-.164.3l.08.072a2.882,2.882,0,0,1-1.278,2.009c-.079,0-.162,0-.162-.071,0-.152-.158-.375-.076-.522,0-.073-.083-.073-.163-.073.163-.151-.107-.3-.026-.522-.081,0-.081-.074-.081-.149.24-.149.044-.533.283-.679l-.076-.074a1.994,1.994,0,0,1,.364-.529v-.149a3.18,3.18,0,0,1,1.136-.574c.08,0,.164,0,.164.072.237.3.079.592,0,.892" transform="translate(-24.108 -8.169)" fill="#231815"/>
      <path id="패스_6" data-name="패스 6" d="M87.478,23.5c.008.1.019.2.031.29.541.523.437,1.422.8,2.061-.172.22-.048.5-.122.708.107.084.107.084.208.17-.139.509.2.956.154,1.456l-.177.218c.008.095.023.192.12.179l-.087.109.106.086-.085.113c.094-.013.1.084.112.18-.169.217.149.472-.122.7a.351.351,0,0,1,.124.282c-.268.232-.1.648-.292.948l.1.094-.092.1-.1-.093c-.095,0-.095.1-.094.2.1.19.3.375.112.579l.1.094a1.212,1.212,0,0,0-.458.74c-.09.1-.09.1-.177.2a.337.337,0,0,1,.095.275c-.175.2-.262.388-.437.585,0,.092.1.275-.083.379l.093.088c-.088.192-.172.477-.254.667.09-.005.09.088.092.183-.268.2-.577.412-.48.781-.171.289-.394.389-.572.678.1.184-.32.266-.313.454s-.269.107-.173.287l.092.089c-.092,0-.092,0-.18.012a.443.443,0,0,1-.263.292c0,.094,0,.187-.089.191a3.38,3.38,0,0,0-.415.465c.094.088-.29.284-.2.287a.527.527,0,0,0-.218.361c-.087,0-.176-.01-.187.086l0,.122c-.064.064-.079.061-.212.093-.708.8-1.737,1.125-2.446,1.925-.19.085-.377.167-.567.253s-.128.367-.295.263c.008-.092-.244.079-.335.078-.2.174-.493.047-.675.038.007-.094-.1-.074-.182-.17l-.1.085c-.079-.095-.283-.286-.374-.291-.079-.1.1-.194.01-.2l.1-.089c.008-.094-.14-.115-.231-.122-.163-.194.184-.046.112-.237l-.353-.033c-.085-.182-.257-.188-.332-.376.019-.185.416-.182.43-.367.182.008.128-.021.32-.106l-.067-.134c.2-.087.164-.246.252-.241-.008.094.068-.013.157-.008s.181.008.191-.086a.362.362,0,0,1,.115-.272l.184.01a3.881,3.881,0,0,0,.546-.566c.008-.092.008-.092.017-.185.1-.088.113-.273.3-.359-.008.095-.02.186.073.19.287-.171.116-.274.043-.463.1-.091.1-.091.2-.176-.008.093.152.022.061.019-.007.092.1-.22.187-.215.224-.345.06.064.392-.571.069-.071.239-.138.255-.183-.021-.008.209-.093.128-.188-.01-.076.022-.1-.165-.02.107-.18.426-.457.44-.642.262.106.055-.314.232-.3-.1.086-.185-.094-.184,0l.3-.011c.2-.176-.28-.167-.1-.366,0-.094-.031-.146-.121-.14,0-.094-.023-.17.068-.176l.092.088c.088-.1-.085-.409.094-.513,0-.1-.005-.188-.005-.28.265-.2.146-.169.227-.454l-.09-.086c0,.09.194-.089.1-.084,0-.094,0-.094,0-.188.179-.1.307-.724.3-.912.007.187-.211-.425-.029-.341.262-.389.081-.906.124-1.385-.188-.073.147-.205.041-.379-.092.009-.179.023-.19-.07l.158-.209c-.008-.093-.017-.187-.105-.175-.01-.094-.018-.186.069-.2-.011-.095-.019-.185-.108-.175.08-.107.08-.107.161-.211-.01-.09-.1-.082-.19-.068.054-.386-.332-.662-.189-1.054-.091.011-.1-.08-.109-.176.241-.314-.086-.688.062-.988-.187-.072-.116-.269-.139-.457.082-.1-.149-.2-.157-.286a6.45,6.45,0,0,1-.309-1.267c-.181.16-.308-1.3-.465-1.868-.234-.367-.077-.778-.214-1.153.095-.013.193-.028.182-.122-.124-.279.158-.412.22-.714.2-.025.379-.147.594.023.183-.119.065-.3.056-.4l1.062-.134c.014.1.019.194.119.181.287-.034.408.145.694.109.009.1.02.2.117.184a.488.488,0,0,1,.405.147c.1-.015.2-.025.184-.121l.108.083.087-.109a.344.344,0,0,0,.3.061c.109.086.137.378.321.255A24.321,24.321,0,0,1,87.478,23.5" transform="translate(-31.292 -8.248)" fill="#231815"/>
      <path id="패스_7" data-name="패스 7" d="M21.576,21.516c-.032-.155-.26-.2-.351-.206s-.268.2-.358.043a1.526,1.526,0,0,1-.339.382.559.559,0,0,1-.319.076c-.046.238-.073.264.137.82.094.019.193.552.295.573-.044-.2.277.445.378.534.066.015.066.015.133.032s.035.076,0,.134l.29.2c.029.078.094.1.02.213a1.613,1.613,0,0,1,.551.229c.06.029.023.081-.014.136.06.025.123.054.16,0,.163,0,.047.161.071.24l.1-.026c.025.079.146.135.146.135.2.3,1.139.653,1.375.917l.092-.043c.071.152.486.182.486.38l.088-.053c.043.071.667.191.84.284.086-.055-.035-.147.059-.194.1.091.317.287.418.378a3.9,3.9,0,0,1,.46.066c.241.256.741.1,1.036.23a.2.2,0,0,0,.165.1l.094-.046.037.076c.183-.093.283,0,.409-.112l.035.077.089-.049c.039.074.039.074.074.152.258.059.492.178.766.037a.2.2,0,0,0,.166.1c.094-.044.094-.044.188-.092.193.042.231.119.45.1l.037.077a.931.931,0,0,1,.729-.04c.056-.122.2.045.249-.08l.035.077c.215-.155.545-.071.767-.084l.035.078c.094-.046.059.006.059.006.184-.088.637-.094.762-.2a.992.992,0,0,0,.6.069c.071.018.214.05.283.071a.676.676,0,0,1,.781-.043,4.3,4.3,0,0,0,.979-.41c.07.024.144.043.217.064.1-.037.173-.016.246-.132a3.4,3.4,0,0,0,.835-.412c.031.08.208-.073.246,0,.035-.058.035-.058.073-.114.14.04.245-.132.386-.089.038-.06.038-.06.073-.119.215-.074.129-.127.342-.2.182-.125.438-.549.855-.736-.01-.135.265-.208.326-.332.029-.062.1-.044.173-.028l-.043-.078c.1-.044.077-.247.172-.158.027-.06.149-.216.088-.233.2-.158.2-.674.5-.741a1.3,1.3,0,0,1,.054-.121c.119-.16.071-.459.14-.5.025-.061-.01-.1.053-.087.076-.239.133-.6.2-.924-.061-.016-.033-.077-.007-.138.061.016.087-.046.113-.105-.061-.014-.034-.077-.008-.139l.088-.047c-.125-.026.016-.194-.106-.222l.082-.05c-.1-.289.046-.588-.056-.879l.08-.047a.383.383,0,0,1,0-.513.223.223,0,0,1,0-.2c-.165-.1.035-.212-.068-.3.061-.185-.143-.368-.021-.541-.082-.152-.1-.215-.186-.364.018-.065.035-.128.053-.192-.061-.013-.122-.023-.109-.088.1-.113-.007-.2.026-.326-.122-.026-.057-.133-.1-.206a1.766,1.766,0,0,0-.329-.888c.082-.124-.09-.624-.079-.777l-.122-.064a.572.572,0,0,0-.229-.326c.007-.077.007-.077.01-.154-.063,0-.125-.007-.121-.085s.007-.077.013-.156l-.07.077a.444.444,0,0,1-.16-.4c-.228-.325-.314-.556-.642-1.022-.128.074,0-.246-.158-.173a1.817,1.817,0,0,0-.552-.738c.007-.077.007-.077.016-.158-.071,0-.071,0-.143,0s-.064-.076-.056-.157c-.409-.246-1.857-.451-2.078-.852-.128,0-.25-.086-.323.068l-.115-.161c-.337.226-.622-.175-.939-.264l-.067.076c-.108-.239-.317-.012-.445-.014a.2.2,0,0,0-.183-.085c-.334.145-.637-.02-.924.364l-.058-.08.722,1.347a5.775,5.775,0,0,0,.379,1.329c.064.017.147.167.2.252-.019.075-.019.075-.035.149.1.175.2.348.287.526-.064-.017-.079.058-.1.132.077.25.074.516.149.757.1.091-.017.143.095.257.01.011-.065.157-.052.167a.373.373,0,0,0,.032.266c.036.269.023.056.209.248-.171.205.121.542-.057.748.1.1.1-.042.128.038-.032.053-.032.053-.061.106s.029.077.089.1c.059.151-.049.242.031.388.063.014,0,.2.07.216.014.135.188.178.025.272-.064-.016-.029.259-.092.439a1.069,1.069,0,0,1-.018.448c.061.014.1-.059.082,0s-.02.06-.043.121c.061.013.055.123.032.185,0,.193-.126.292-.192.473-.069.392.135.712-.131.853.095.085-.018.19-.048.249-.091.044-.066.235-.147.281-.1.243-.145.23-.245.469-.161.093-.187.2-.349.291a1.268,1.268,0,0,1-.052.116c-.025.061-.079.049-.136.035-.106.109-.471.277-.52.394l.029.076a2.486,2.486,0,0,0-.524.246c-.239.144-.419.144-.667.27-.218-.058-.408.1-.626.04-.082.045-.167.091-.248.13-.11-.028-.277.056-.361-.031-.107-.029-.083.173-.192.143-.056-.016-.056-.016-.109-.029l-.027-.076c-.167.088-.3-.014-.469.067l-.027-.069c-.165.083-.3-.008-.409.1a1.309,1.309,0,0,0-.7-.082c.026-.06-.028-.071-.088-.08l-.076.052c.021-.063-.474-.026-.527-.034l-.114-.021-.031-.072-.084.051c-.087-.084-.679-.141-.821-.3-.111.109-.219.061-.348.035a6.172,6.172,0,0,1-1.24-.281l-.036-.077a.493.493,0,0,1-.572-.157c-.064-.011-.152-.022-.215-.04-.067-.155-.486-.125-.539-.284a1.9,1.9,0,0,1-.3-.249c-.134.082-.479-.327-.543-.353l-.23-.011-.083-.247-.308-.227c-.122-.233-.25-.053-.289-.248" transform="translate(-8.068 -4.528)" fill="#231815"/>
      <path id="패스_8" data-name="패스 8" d="M29.157,10.388c.087,0,.172.008.254.014.409.421,1.217.3,1.751.563.213-.151.444-.062.636-.13l.129.165c.47-.14.723.1,1.168.066l.221-.14c.079.006.165.019.14.1l.108-.069.061.087.11-.067c-.025.076.059.088.14.093.218-.135.35.048.6-.158a.267.267,0,0,0,.22.117c.251-.208.337.011.644-.088l.053.093.112-.057-.051-.1c.028-.077.112-.059.193-.041.133.113.226.283.459.177l.044.1c.143-.1-.965-.152.763-.207l.221-.1a.26.26,0,0,0,.2.136c.22-.1.406-.128.626-.225.078.02.2.133.343.013l.045.091c.188-.028.452-.035.639-.064-.032.069-.127-.1-.055-.065.266-.133.556-.292.807-.095.293-.032.421-.181.72-.2.1.142.338-.135.478-.058s.147-.128.236.017l.026.1.091-.127a.4.4,0,0,0,.334-.07c.068.037.139.079.184.016a3.6,3.6,0,0,1,.529-.112c.026.1.185-.052.145.013a.44.44,0,0,1,.359.032c.043-.063.089-.128.158-.086l.082.062c.075-.013.083-.023.176-.1.924-.081,1.44-.533,2.356-.533l.48-.218c.163-.076.308.124.338-.043-.065-.046.188-.11.236-.166.226-.025.365-.416.456-.541-.065-.043,0-.1-.017-.21l.111-.019a1.938,1.938,0,0,1,0-.613c-.02-.1-.179-.037-.134-.1l-.042-.074c-.064-.046.02-.16.065-.221-.044-.214-.238.028-.326-.122l.165-.25c-.077-.152-.416-.24-.551-.33-.091.127-.083.077-.237.157L46.1,6.686c-.159.085-.252-.02-.295.041.064.044-.046.038-.09.1s-.09.125-.157.083a.315.315,0,0,0-.244-.07c-.045.066-.045.066-.089.126a3.572,3.572,0,0,1-1.554-.038c-.113.026-.113.026-.222.056.071.038-.058.116-.019.05.073.037-.2-.035-.24.034-.358-.005-1.143.077-.988-.018-.182-.009-.535.086-.676.016-.051.23-.3-.134-.379,0,.11-.031-.138-.044-.066-.013l.007.092c-.222.066-.239-.14-.46-.061-.074-.031-.106-.067-.068-.133-.075-.029-.125-.072-.161,0l.036.1c-.113.04-.3-.186-.45-.083-.071-.03-.146-.058-.22-.086a1.86,1.86,0,0,1-.8.159l-.049-.091c.075.017-.129.14-.1.068a1.3,1.3,0,0,0-.157-.032,1.51,1.51,0,0,1-.849.088c.157.034-.317-.277-.291-.114-.395.154-.849-.079-1.269-.079-.026-.163-.2.1-.34,0,.027-.071.053-.147-.022-.16-.107.058-.185.032-.288.1-.081-.007-.163-.022-.135-.094-.083-.01-.164-.017-.185.055-.081-.013-.163-.021-.136-.1-.107.063-.211.142-.311.211-.079-.005-.061-.082-.04-.158-.346.05-.541-.262-.909-.142.019-.073-.058-.078-.14-.086-.306.2-.735-.019-1.018.122-.047-.146-.227-.074-.391-.077-.1.071-.164-.112-.242-.114a5.559,5.559,0,0,0-1.1-.164c.157-.156-1.125-.163-1.617-.253-.308-.164-.686-.011-1.009-.1-.016.08-.038.161-.122.159-.236-.084-.379.156-.651.231-.035.16-.212.236-.164.374-.12.157-.135.187-.218.182-.074.321-.127.29-.21.609.085,0,.171.007.147.083-.062.241.086.329.024.567.083,0,.173.011.148.086a.345.345,0,0,0,.087.33c-.021.078-.043.158-.123.155l.061.083-.108.074a.24.24,0,0,1,.022.244c.066.083.322.1.2.25a16.452,16.452,0,0,0,1.706,1.046" transform="translate(-10.795 -2.365)" fill="#231815"/>
      <path id="패스_9" data-name="패스 9" d="M164.037,44.466a3.741,3.741,0,0,1-.736-.068,20.914,20.914,0,0,1,.106,2.314c-.013,1.616.067,3.542-.19,3.99-.139.218-.3.233-.516.332.029.069.045.115.068.183s.038.119.055.2c.067-.032,1.715-.14,1.784-1.715.053-1.156.014-1.829.021-2.98,0-.888.048-1.428.077-2.32a3.336,3.336,0,0,1-.669.068" transform="translate(-65.057 -17.753)" fill="#717071"/>
      <path id="패스_10" data-name="패스 10" d="M169.407,47.1a1.843,1.843,0,0,0-1.977,2.045,1.891,1.891,0,0,0,1.961,2.112,1.993,1.993,0,0,0,1.273-.376l.172-.447-.1-.072a1.482,1.482,0,0,1-.959.38c-1.17,0-1.17-1.454-1.154-1.536h2.357c.061-.326.113-2.106-1.568-2.106m.477,1.69h-1.243c-.014-.025.007-1.343.667-1.343.611,0,.577,1.343.577,1.343" transform="translate(-66.949 -18.833)" fill="#717071"/>
      <path id="패스_11" data-name="패스 11" d="M175.335,47.3a4.092,4.092,0,0,1-.621-.039c.04.708.048,1.111.048,1.815a11.909,11.909,0,0,1-.139,3.147,1.276,1.276,0,0,1-.519.441l.079.278a2.206,2.206,0,0,0,1.2-.541c.706-.631.487-1.744.487-3.372,0-.68.032-1.084.085-1.769a4.054,4.054,0,0,1-.616.039" transform="translate(-69.617 -18.898)" fill="#717071"/>
      <path id="패스_12" data-name="패스 12" d="M175.744,43.717a.639.639,0,1,0,.637.639.646.646,0,0,0-.637-.639" transform="translate(-70.018 -17.481)" fill="#717071"/>
      <path id="패스_13" data-name="패스 13" d="M181.855,47.313a2.908,2.908,0,0,1-.585-.052c0,.007.053,1.328.037,2.138-.014.555-.122,1.22-.735,1.214-.64-.01-.654-.675-.654-1.214a21.2,21.2,0,0,1,.092-2.138,3.762,3.762,0,0,1-.585.052,3.592,3.592,0,0,1-.649-.052s.025,1,.025,1.631c0,1.054-.3,2.444,1.264,2.444a1.569,1.569,0,0,0,1.253-.71l-.032.565a3.53,3.53,0,0,1,.562-.046,2.325,2.325,0,0,1,.564.046c-.026-.708-.038-1.05-.038-1.745.007-.848.02-1.347.07-2.184a2.94,2.94,0,0,1-.588.052" transform="translate(-71.485 -18.898)" fill="#717071"/>
      <path id="패스_14" data-name="패스 14" d="M192.832,46.6c-.3-.159-1.273-.478-1.264-1.135a.806.806,0,0,1,.839-.788,1.03,1.03,0,0,1,1.027.72l.127,0,.245-.814a2.008,2.008,0,0,0-1.361-.391,1.73,1.73,0,0,0-1.82,1.635c.025.9.269,1.281,1.219,1.751.533.257,1.267.518,1.251,1.185a.843.843,0,0,1-.979.829,1.109,1.109,0,0,1-1.119-.9h-.15a3.642,3.642,0,0,1-.077.51,4.361,4.361,0,0,1-.153.552,2.364,2.364,0,0,0,1.342.344,1.882,1.882,0,0,0,2.141-1.787c0-.819-.326-1.191-1.268-1.7" transform="translate(-76.22 -17.67)" fill="#717071"/>
      <path id="패스_15" data-name="패스 15" d="M199.895,47.124a1.255,1.255,0,0,0-1.248.81l.061-.728a2.189,2.189,0,0,1-.578.07,2.047,2.047,0,0,1-.539-.07c.053,1.3.061,2.061.044,3.358-.016,1.118-.04,1.774-.106,2.887a3.957,3.957,0,0,1,.592-.047,2.752,2.752,0,0,1,.61.062c-.008-.4-.016-.634-.016-1.041-.007-.643-.007-1.025-.014-1.669a1.161,1.161,0,0,0,1.147.628c1.067-.005,1.617-.965,1.617-2.162,0-1.288-.55-2.1-1.571-2.1m-.487,3.715c-.646.01-.722-.859-.722-1.51,0-.718.184-1.682.781-1.682.694,0,.778.927.778,1.62s-.161,1.571-.837,1.571" transform="translate(-78.984 -18.843)" fill="#717071"/>
      <path id="패스_16" data-name="패스 16" d="M207.305,47.1a1.843,1.843,0,0,0-1.976,2.045,1.891,1.891,0,0,0,1.96,2.112,1.984,1.984,0,0,0,1.272-.376l.173-.447-.1-.072a1.476,1.476,0,0,1-.955.38c-1.172,0-1.172-1.454-1.159-1.536h2.356c.061-.326.115-2.106-1.567-2.106m.478,1.69H206.54c-.016-.025.009-1.343.668-1.343.607,0,.576,1.343.576,1.343" transform="translate(-82.103 -18.833)" fill="#717071"/>
      <path id="패스_17" data-name="패스 17" d="M214.81,47.525a.821.821,0,0,1,.835.815l.2.032.326-.87a2.409,2.409,0,0,0-1.408-.379,2.03,2.03,0,0,0-2.19,2.075,1.938,1.938,0,0,0,2.089,2.051,1.988,1.988,0,0,0,1.189-.314l.188-.485-.142-.105a1.239,1.239,0,0,1-1,.38c-.766,0-1.077-.73-1.077-1.6,0-.727.287-1.6.987-1.6" transform="translate(-84.999 -18.843)" fill="#717071"/>
      <path id="패스_18" data-name="패스 18" d="M221.656,47.262a4.111,4.111,0,0,1-.625.039,3.381,3.381,0,0,1-.627-.039c.029.708.038,1.1.038,1.809-.008.835-.029,1.294-.083,2.12a4.166,4.166,0,0,1,.621-.061,3.535,3.535,0,0,1,.63.061c-.05-.851-.068-1.305-.05-2.16.011-.68.036-1.083.1-1.769" transform="translate(-88.112 -18.898)" fill="#717071"/>
      <path id="패스_19" data-name="패스 19" d="M221.031,43.627a.65.65,0,0,0-.649.644.654.654,0,1,0,1.307.018.667.667,0,0,0-.658-.662" transform="translate(-88.122 -17.445)" fill="#717071"/>
      <path id="패스_20" data-name="패스 20" d="M227.533,50.765a.4.4,0,0,1-.143-.357V48.267c0-.739-.609-1.156-1.512-1.156a2.339,2.339,0,0,0-1.505.547l.1.495.069.007a1.353,1.353,0,0,1,1-.48.736.736,0,0,1,.753.7c0,.529-.578.465-1,.59-.244.077-1.2.26-1.2,1.159a1.047,1.047,0,0,0,1.131,1.115,1.226,1.226,0,0,0,1.089-.609.847.847,0,0,0,.789.609,1.484,1.484,0,0,0,.771-.236l-.007-.2a.413.413,0,0,1-.331-.041m-1.23-.844c0,.383-.208.775-.61.775-.424,0-.448-.348-.454-.646a.746.746,0,0,1,.363-.742c.268-.124.676-.292.7-.292Z" transform="translate(-89.605 -18.838)" fill="#717071"/>
      <path id="패스_21" data-name="패스 21" d="M233.316,43.374a3.583,3.583,0,0,1-.618.06,3.1,3.1,0,0,1-.611-.06c.053,1.283.069,2.088.062,3.382,0,1.143-.025,1.747-.079,2.88a3.251,3.251,0,0,1,1.257,0c-.025-1.147-.052-1.761-.067-2.909-.021-1.28.033-2.077.055-3.353" transform="translate(-92.796 -17.344)" fill="#717071"/>
      <path id="패스_22" data-name="패스 22" d="M242.477,46.6c-.3-.159-1.273-.478-1.264-1.135a.8.8,0,0,1,.839-.788,1.027,1.027,0,0,1,1.024.72l.129,0,.244-.814a2.005,2.005,0,0,0-1.359-.391,1.726,1.726,0,0,0-1.817,1.635c.021.9.269,1.281,1.216,1.751.531.257,1.269.518,1.251,1.185a.84.84,0,0,1-.978.829,1.108,1.108,0,0,1-1.119-.9h-.151a2.933,2.933,0,0,1-.077.51,4.152,4.152,0,0,1-.151.552,2.358,2.358,0,0,0,1.341.344,1.88,1.88,0,0,0,2.14-1.787c0-.819-.323-1.191-1.267-1.7" transform="translate(-96.072 -17.67)" fill="#717071"/>
      <path id="패스_23" data-name="패스 23" d="M249.265,47.1a1.841,1.841,0,0,0-1.975,2.045,1.889,1.889,0,0,0,1.961,2.112,1.988,1.988,0,0,0,1.268-.376l.173-.447-.1-.072a1.479,1.479,0,0,1-.957.38c-1.171,0-1.171-1.454-1.156-1.536h2.354c.061-.326.116-2.106-1.565-2.106m.48,1.69H248.5c-.013-.025.009-1.343.668-1.343.607,0,.579,1.343.579,1.343" transform="translate(-98.881 -18.833)" fill="#717071"/>
      <path id="패스_24" data-name="패스 24" d="M256.207,43.374a3.579,3.579,0,0,1-.615.06,3.1,3.1,0,0,1-.612-.06c.053,1.283.069,2.088.061,3.382,0,1.143-.023,1.747-.079,2.88a2.66,2.66,0,0,1,.607-.061,2.625,2.625,0,0,1,.651.061c-.022-1.147-.049-1.761-.064-2.909-.022-1.28.032-2.077.052-3.353" transform="translate(-101.949 -17.344)" fill="#717071"/>
      <path id="패스_25" data-name="패스 25" d="M259.176,45.822h-.584a.542.542,0,0,1,.016.2.877.877,0,0,1-.04.221h.609c-.014.618-.014.978-.038,1.6-.028.94-.053,1.113-.082,1.851a3.046,3.046,0,0,1,.593-.037,3.006,3.006,0,0,1,.639.037c0-.637-.029-1.18-.029-1.811,0-.714.029-.888.029-1.6h.789a.743.743,0,0,1-.021-.222.548.548,0,0,1,.036-.21h-.833l-.25-.859c-.125-.428.133-.593.441-.58a1.162,1.162,0,0,1,.72.25l.122-.069c0-.194.008-.323.008-.523s.032-.319.046-.51a2.154,2.154,0,0,0-.394-.044c-1.433-.067-1.788,2.255-1.775,2.309" transform="translate(-103.391 -17.399)" fill="#717071"/>
      <path id="패스_26" data-name="패스 26" d="M266.641,48.709c-.169.008-.818.038-1.329.038-.548,0-1.053-.068-1.4-.046a3.193,3.193,0,0,1,.043.471c0,.2-.028.495-.028.51.491-.037.784-.053,1.277-.053.556,0,.889.016,1.443.061a2.089,2.089,0,0,1-.075-.5,1.545,1.545,0,0,1,.069-.48" transform="translate(-105.527 -19.472)" fill="#717071"/>
      <path id="패스_27" data-name="패스 27" d="M274.592,47.551a2.824,2.824,0,0,1-.674-.055,9.2,9.2,0,0,1,.059,1.1c0,.341,0,.548-.022.891a2.08,2.08,0,0,1-.928.175c-.183,0-1.949-.084-1.955-2.357a2.262,2.262,0,0,1,2.075-2.515,1.916,1.916,0,0,1,1.6.8l.106.023.212-.828a3.524,3.524,0,0,0-1.914-.507c-1.829,0-3.418.911-3.418,3.151,0,1.641,1.463,2.7,3.512,2.7a4.945,4.945,0,0,0,1.9-.367,10.959,10.959,0,0,1-.039-1.129c.008-.448.031-.717.076-1.159a2.687,2.687,0,0,1-.592.079" transform="translate(-107.857 -17.705)" fill="#717071"/>
      <path id="패스_28" data-name="패스 28" d="M282.111,47.031a2.024,2.024,0,0,0-2.022,2.106,1.834,1.834,0,0,0,2,2.052,1.931,1.931,0,0,0,2.036-2.159,1.858,1.858,0,0,0-2.014-2m-.038,3.812c-.57,0-.753-.756-.753-1.734,0-.736.154-1.724.805-1.724.67,0,.8.981.8,1.663,0,.946-.212,1.8-.853,1.8" transform="translate(-111.996 -18.806)" fill="#717071"/>
      <path id="패스_29" data-name="패스 29" d="M290.084,47.262s-.252.789-.421,1.287c-.218.643-.593,1.646-.593,1.646s-.311-.846-.477-1.395c-.183-.593-.433-1.539-.433-1.539a3.017,3.017,0,0,1-.6.069,2.89,2.89,0,0,1-.667-.069c.31.781.486,1.254.765,2.046.266.742.409,1.118.655,1.883a2.4,2.4,0,0,1,.462-.046,2.457,2.457,0,0,1,.4.046c.3-.784.471-1.225.768-2.006.283-.738.452-1.18.729-1.923a.782.782,0,0,1-.269.048.9.9,0,0,1-.32-.048" transform="translate(-114.717 -18.898)" fill="#717071"/>
      <path id="패스_30" data-name="패스 30" d="M295.322,47.1a1.843,1.843,0,0,0-1.977,2.045,1.891,1.891,0,0,0,1.961,2.112,2,2,0,0,0,1.274-.376l.171-.447-.1-.072a1.481,1.481,0,0,1-.958.38c-1.17,0-1.17-1.454-1.158-1.536h2.356c.061-.326.115-2.106-1.566-2.106m.477,1.69h-1.242c-.018-.025.007-1.343.666-1.343.61,0,.577,1.343.577,1.343" transform="translate(-117.297 -18.833)" fill="#717071"/>
      <path id="패스_31" data-name="패스 31" d="M302.666,47.112a1.547,1.547,0,0,0-.872,1.057l.017-.988a2.166,2.166,0,0,1-.5.061,2.435,2.435,0,0,1-.592-.061c.038.717.04,1.073.04,1.785,0,.831-.013,1.317-.067,2.144a3.822,3.822,0,0,1,.585-.037,3.926,3.926,0,0,1,.594.037c-.007-.061-.064-.927-.039-1.521.022-.578-.085-1.141.525-1.389a.771.771,0,0,1,.712.082l.077-.082a2.8,2.8,0,0,1-.032-.571,3.629,3.629,0,0,1,.061-.556,1.2,1.2,0,0,0-.51.038" transform="translate(-120.235 -18.819)" fill="#717071"/>
      <path id="패스_32" data-name="패스 32" d="M308.249,47.082a1.534,1.534,0,0,0-1.242.709l.022-.6a2.758,2.758,0,0,1-.565.052,2.691,2.691,0,0,1-.56-.052c.029.708.037,1.081.037,1.785-.008.846-.025,1.3-.069,2.144a3.036,3.036,0,0,1,.586-.046,3.119,3.119,0,0,1,.592.046c-.007-.008-.061-1.3-.037-2.108,0-.547.115-1.22.732-1.206.634.008.651.676.659,1.206,0,.863-.079,2.061-.094,2.108a3.868,3.868,0,0,1,.588-.053,3.615,3.615,0,0,1,.637.053s-.028-1.093-.028-1.761c0-1.008.181-2.276-1.258-2.276" transform="translate(-122.306 -18.826)" fill="#717071"/>
      <path id="패스_33" data-name="패스 33" d="M315.133,47.262a4.075,4.075,0,0,1-.624.039,3.443,3.443,0,0,1-.631-.039c.034.708.042,1.1.042,1.809-.008.835-.031,1.294-.085,2.12a4.246,4.246,0,0,1,.624-.061,3.53,3.53,0,0,1,.627.061c-.053-.851-.069-1.305-.053-2.16.016-.68.038-1.083.1-1.769" transform="translate(-125.49 -18.898)" fill="#717071"/>
      <path id="패스_34" data-name="패스 34" d="M314.513,43.627a.655.655,0,1,0,.654.662.666.666,0,0,0-.654-.662" transform="translate(-125.501 -17.445)" fill="#717071"/>
      <path id="패스_35" data-name="패스 35" d="M319.9,47.082a1.551,1.551,0,0,0-1.247.709l.025-.6a2.757,2.757,0,0,1-.563.052,2.713,2.713,0,0,1-.562-.052c.033.708.038,1.081.038,1.785-.005.846-.022,1.3-.068,2.144a3.011,3.011,0,0,1,.584-.046,3.171,3.171,0,0,1,.6.046c-.008-.008-.061-1.3-.04-2.108.007-.547.114-1.22.733-1.206.634.008.649.676.657,1.206,0,.863-.074,2.061-.09,2.108a3.781,3.781,0,0,1,.586-.053,3.652,3.652,0,0,1,.639.053s-.029-1.093-.029-1.761c0-1.008.178-2.276-1.257-2.276" transform="translate(-126.963 -18.826)" fill="#717071"/>
      <path id="패스_36" data-name="패스 36" d="M328.558,47.185c-.37.014-.595.014-.964.014-.624-.005-.624-.074-1.041-.074-.711,0-1.707.213-1.721,1.313a1.279,1.279,0,0,0,1.019,1.278v.076c-.008,0-.772.205-.772.774a.7.7,0,0,0,.549.685,1.065,1.065,0,0,0-.913,1.029c0,.856.957,1.07,1.745,1.07a1.949,1.949,0,0,0,2.091-1.72,1.04,1.04,0,0,0-.53-.94c-.565-.325-2.078.107-2.039-.6.03-.607.735-.053,1.512-.471a1.256,1.256,0,0,0,.713-1.141,1.094,1.094,0,0,0-.462-.941l.77.038Zm-2,4.129c.5,0,1.041.122,1.041.741s-.448.972-1.118.972a.983.983,0,0,1-1.013-.964c0-.781.579-.757,1.09-.749m-.033-1.82c-.442,0-.556-.556-.556-1.005s.131-1.04.589-1.04.507.6.507,1.05-.09,1-.54,1" transform="translate(-129.84 -18.843)" fill="#717071"/>
      <path id="패스_37" data-name="패스 37" d="M338.812,44.362a12.005,12.005,0,0,1-1.642.016c.046,1.1.027,1.689.052,2.792.02,1.126-.025,1.729-.085,2.856.264-.008.422-.017.691-.017s.426,0,.688.017c-.022-.586-.037-.88-.061-1.459-.014-.38-.022-.609-.028-.987.122.068,2.637.264,2.637-1.8,0-1-.688-1.525-2.253-1.418m-.37,2.767.022-2.33c1.135,0,1.265.507,1.265,1.084a1.15,1.15,0,0,1-1.287,1.245" transform="translate(-134.808 -17.733)" fill="#717071"/>
      <path id="패스_38" data-name="패스 38" d="M346.736,47.112a1.547,1.547,0,0,0-.872,1.057l.019-.988a2.208,2.208,0,0,1-.5.061,2.428,2.428,0,0,1-.592-.061c.036.717.042,1.073.042,1.785,0,.831-.016,1.317-.07,2.144a3.842,3.842,0,0,1,.585-.037,3.947,3.947,0,0,1,.6.037c-.008-.061-.064-.927-.041-1.521.025-.578-.083-1.141.527-1.389a.772.772,0,0,1,.712.082l.077-.082a2.642,2.642,0,0,1-.032-.571,3.489,3.489,0,0,1,.06-.556,1.194,1.194,0,0,0-.509.038" transform="translate(-137.856 -18.819)" fill="#717071"/>
      <path id="패스_39" data-name="패스 39" d="M351.67,47.031a2.023,2.023,0,0,0-2.021,2.106,1.834,1.834,0,0,0,2,2.052,1.931,1.931,0,0,0,2.039-2.159,1.857,1.857,0,0,0-2.014-2m-.037,3.812c-.57,0-.753-.756-.753-1.734,0-.736.15-1.724.805-1.724.67,0,.8.981.8,1.663,0,.946-.216,1.8-.855,1.8" transform="translate(-139.811 -18.806)" fill="#717071"/>
      <path id="패스_40" data-name="패스 40" d="M359.644,47.262s-.252.789-.421,1.287c-.219.643-.594,1.646-.594,1.646s-.311-.846-.477-1.395c-.187-.593-.435-1.539-.435-1.539a2.98,2.98,0,0,1-.6.069,2.87,2.87,0,0,1-.663-.069c.309.781.487,1.254.766,2.046.262.742.409,1.118.653,1.883a2.406,2.406,0,0,1,.465-.046,2.458,2.458,0,0,1,.4.046c.3-.784.471-1.225.765-2.006.284-.738.454-1.18.728-1.923a.747.747,0,0,1-.269.048.877.877,0,0,1-.315-.048" transform="translate(-142.53 -18.898)" fill="#717071"/>
      <path id="패스_41" data-name="패스 41" d="M365.38,47.262a4.057,4.057,0,0,1-.624.039,3.375,3.375,0,0,1-.627-.039c.028.708.037,1.1.037,1.809-.008.835-.029,1.294-.081,2.12a4.19,4.19,0,0,1,.622-.061,3.547,3.547,0,0,1,.627.061c-.054-.851-.069-1.305-.054-2.16.017-.68.037-1.083.1-1.769" transform="translate(-145.583 -18.898)" fill="#717071"/>
      <path id="패스_42" data-name="패스 42" d="M364.756,43.627a.65.65,0,0,0-.652.644.654.654,0,1,0,1.308.018.667.667,0,0,0-.657-.662" transform="translate(-145.591 -17.445)" fill="#717071"/>
      <path id="패스_43" data-name="패스 43" d="M370.14,47.082a1.539,1.539,0,0,0-1.243.709l.025-.6a2.773,2.773,0,0,1-.563.052,2.743,2.743,0,0,1-.565-.052c.031.708.037,1.081.037,1.785-.007.846-.021,1.3-.068,2.144a3.048,3.048,0,0,1,.587-.046,3.1,3.1,0,0,1,.589.046c-.006-.008-.061-1.3-.037-2.108.01-.547.115-1.22.732-1.206.637.008.652.676.658,1.206,0,.863-.075,2.061-.089,2.108a3.781,3.781,0,0,1,.585-.053,3.673,3.673,0,0,1,.64.053s-.031-1.093-.031-1.761c0-1.008.179-2.276-1.257-2.276" transform="translate(-147.054 -18.826)" fill="#717071"/>
      <path id="패스_44" data-name="패스 44" d="M377.456,47.525a.821.821,0,0,1,.835.815l.2.032.328-.87a2.4,2.4,0,0,0-1.407-.379,2.03,2.03,0,0,0-2.191,2.075,1.939,1.939,0,0,0,2.09,2.051,1.984,1.984,0,0,0,1.189-.314l.187-.485-.14-.105a1.243,1.243,0,0,1-1,.38c-.77,0-1.081-.73-1.081-1.6,0-.727.287-1.6.988-1.6" transform="translate(-150.035 -18.843)" fill="#717071"/>
      <path id="패스_45" data-name="패스 45" d="M384.464,47.1a1.843,1.843,0,0,0-1.977,2.045,1.891,1.891,0,0,0,1.96,2.112,2,2,0,0,0,1.274-.376l.173-.447-.1-.072a1.488,1.488,0,0,1-.96.38c-1.171,0-1.171-1.454-1.157-1.536h2.357c.061-.326.114-2.106-1.566-2.106m.478,1.69H383.7c-.014-.025.008-1.343.668-1.343.607,0,.577,1.343.577,1.343" transform="translate(-152.941 -18.833)" fill="#717071"/>
      <path id="패스_46" data-name="패스 46" d="M163.938,19.928s1.563-1.755,3.911-4.634a25.682,25.682,0,0,1,2.99,4.347l.081.177,1.608-2.4-.065-.064a36.353,36.353,0,0,0-3.736-3.186c.139-.178,3.462-4.476,3.462-4.476l-1.5-2.165a17.263,17.263,0,0,1-2.125.3c-.865,0-5.249-.146-5.249-.146l.369,1.91s4.383-.257,5.261-.319c-1.47,2.811-6.355,10.124-6.355,10.124Z" transform="translate(-65.013 -3.009)" fill="#717071"/>
      <path id="패스_47" data-name="패스 47" d="M178.863,11.762c-1.254-.063-2.741-.172-2.741-.172l.139,2.12s2.42-.431,2.648-.474c.144,3.217.162,9.474.162,9.474l1.884-.93,0-.067c.027-.589.589-16.132.589-16.132l-2.99-.574s.162,2.314.307,6.755" transform="translate(-70.424 -2.002)" fill="#717071"/>
      <path id="패스_48" data-name="패스 48" d="M189.616,4.236l-3.232-.248s.549,16.066.564,19.323l1.98-1.072Z" transform="translate(-74.528 -1.595)" fill="#717071"/>
      <path id="패스_49" data-name="패스 49" d="M351.571,22.239l.691-18-3.354-.248s.548,16.066.563,19.323Z" transform="translate(-139.515 -1.595)" fill="#717071"/>
      <path id="패스_50" data-name="패스 50" d="M318.3,12.828c1.056.2,3.129.495,3.129.495.069-.656.157-2.02.157-2.02s-2.2.16-3.239.245l.283-7.312-3.352-.248s.547,16.066.562,19.323l2.1-1.072Z" transform="translate(-126.069 -1.595)" fill="#717071"/>
      <path id="패스_51" data-name="패스 51" d="M199.9,13.463s4.647-2.1,6.747-3.265c1.839,1.059,5.011,2.883,6.049,3.443l.1.053,1.124-2.237s-5.2-1.986-5.626-2.146c.344-.181,4.244-2.188,4.244-2.188l-2.085-1.836c-1.737.742-10.869.254-10.869.254l.161,1.564s6.549.035,7.075.035a56.906,56.906,0,0,1-8.486,5.609Z" transform="translate(-79.303 -2.114)" fill="#717071"/>
      <path id="패스_52" data-name="패스 52" d="M204.052,29.949l2.657-1.217s.367-5,.367-6.568c.211,0,7.318-.022,7.318-.022l.173-1.56c-9.856.415-18.558.06-18.558.06l.591,1.681s2.849-.109,6.942-.14c.409,4.324.486,5.554.51,7.767" transform="translate(-78.376 -8.23)" fill="#717071"/>
      <path id="패스_53" data-name="패스 53" d="M375.978,14.672l-.037-1.743s-7.566.384-9.984.27c-.044-.394-.2-5.269-.173-5.854,4.9-.188,9.839.061,9.839.061l.162-1.788L362.66,5.69l.265,9.039Z" transform="translate(-145.013 -2.246)" fill="#717071"/>
      <path id="패스_54" data-name="패스 54" d="M368.943,26.857c0-.037.2-4.569.2-4.569l-3.385-.257s.238,3.721.349,4.842c-3,0-8.086-.182-8.086-.182l.19,1.847s10.05-.224,18.125-.105l.107-1.758s-3.33.137-7.5.183" transform="translate(-143.158 -8.809)" fill="#717071"/>
      <path id="패스_55" data-name="패스 55" d="M273.054,13.971l.455-8.335-2.8-.26.086,3.1c-.936.04-2.9.017-3.583.011l-.075-2.6-2.881-.251.8,8.332s4.88-.156,8,0M270.836,10l.068,2.512-3.577.05-.075-2.591c1.176-.017,2.867.015,3.585.03" transform="translate(-105.666 -2.15)" fill="#717071"/>
      <path id="패스_56" data-name="패스 56" d="M283.865,14.808l2-.829c.094-.8.717-6.753.9-9.743l-3.232-.248c.043,1.044.076,2.03.109,3.063-.836-.16-2.219-.414-2.566-.433l.077,1.965,2.527-.221c.018.612.039,1.254.056,1.94-.873-.042-2.142.048-2.744-.037l-.04,1.694,2.822-.311c.026.948.055,1.987.088,3.159" transform="translate(-112.343 -1.595)" fill="#717071"/>
      <path id="패스_57" data-name="패스 57" d="M278.375,24.669l-.112,1.391c-1.724-.02-6.267-.127-8.261-.223l.886,4.418c3.684-.064,10.725-.064,10.725-.064l.159-1.689a68.645,68.645,0,0,1-8.293.281l-.22-1.479c3.21.077,7.588-.1,7.588-.1l.463-4.12c-2.7.218-11.588.041-11.588.041l.369,1.611c1.443-.013,7.083-.063,8.284-.071" transform="translate(-107.851 -9.232)" fill="#717071"/>
      <path id="패스_58" data-name="패스 58" d="M305.594,9.746,303.785,7.64a12,12,0,0,1-2.417.284c-2.084-.056-4.367-.124-5.7-.193l.432,2.021c3.317-.143,5.847-.369,5.847-.369-.919,1.613-4.8,6.82-7.23,9.98l1.279.594c.984-.9,2.654-2.665,4.361-4.514a47.016,47.016,0,0,1,3.926,4.386l1.314-2.618c-1.168-.9-3.06-2.115-4.234-2.855,1.73-1.887,3.371-3.7,4.228-4.608" transform="translate(-117.847 -3.055)" fill="#717071"/>
      <path id="패스_59" data-name="패스 59" d="M337.976,6.76l.063-1.394c-1.893-.005-5.993-.279-7.034-.314l.269,1.841s4.666-.041,6.7-.133" transform="translate(-132.356 -2.02)" fill="#717071"/>
      <path id="패스_60" data-name="패스 60" d="M337,21.216l1.377-2.514c-1.3-.911-3.041-2-4.046-2.621,2.123-2.1,3.89-3.924,3.89-3.924l-1.809-1.878a10.865,10.865,0,0,1-2.6.253c-2.145-.053-3.972-.149-5.452-.16l.441,2.048c2.009-.141,5.565-.5,5.565-.5a103.1,103.1,0,0,1-6.785,8.676l1.352.6c1.143-.988,2.7-2.469,4.2-3.942A50.592,50.592,0,0,1,337,21.216" transform="translate(-130.987 -4.11)" fill="#717071"/>
      <path id="패스_61" data-name="패스 61" d="M247.689,12.261l-.069-1.652c-1.541.2-7.694.222-9.822.112l.016-1.385c2.976.01,6.2.056,9.712.21v-1.6c-2.911.125-5.426.228-9.7.083l.014-1.186c2.554.073,6.8.126,9.77.02l.043-1.565a122.113,122.113,0,0,1-12.931-.111l.343,6.972c1.707.06,7.451-.036,12.624.1" transform="translate(-93.856 -2.073)" fill="#717071"/>
      <path id="패스_62" data-name="패스 62" d="M244.689,26.9s.23,3.879.2,4.979l2.409-1.165.621-5.344s-10.756.086-13.465.031l.27,1.536c5.122-.154,9.965-.037,9.965-.037" transform="translate(-93.749 -10.144)" fill="#717071"/>
      <path id="패스_63" data-name="패스 63" d="M248.614,21.3l.175-1.56c-9.858.417-18.323.061-18.323.061l.594,1.682c9.088-.354,17.554-.183,17.554-.183" transform="translate(-92.154 -7.894)" fill="#717071"/>
    </g>
  </g>
</svg>
